 <svg viewBox="0 0 512 512" style="enable-background:new 0 0 512 512;" xml:space="preserve"> <path style="fill:#F98869;" d="M128.323,371.671v36.832H47.72v-63.421h54.014C116.418,345.081,128.323,356.986,128.323,371.671z"/> <rect x="47.72" y="374.084" style="opacity:0.38;fill:#781900;enable-background:new    ;" width="80.603" height="26.084"/> <g> <path style="fill:#F98869;" d="M47.72,509.088H0V236.171h17.058c16.934,0,30.661,13.728,30.661,30.661v242.255H47.72z"/> <path style="fill:#F98869;" d="M512,509.088h-47.719V390.326c0-7.892,6.398-14.29,14.29-14.29H512V509.088z"/> <rect x="47.72" y="429.411" style="fill:#F98869;" width="416.559" height="37.013"/> </g> <rect x="47.72" y="392.391" style="fill:#FFBCAB;" width="416.559" height="37.013"/> <rect id="SVGCleanerId_0" x="211.31" y="33.811" style="fill:#3C66B1;" width="203.086" height="289.938"/> <g> <rect id="SVGCleanerId_0_1_" x="211.31" y="33.811" style="fill:#3C66B1;" width="203.086" height="289.938"/> </g> <rect x="211.31" y="18.361" style="fill:#3C66B1;" width="203.086" height="305.392"/> <g> <rect x="297.524" y="33.811" style="fill:#B8D6FD;" width="30.655" height="289.938"/> <rect x="211.31" y="163.453" style="fill:#B8D6FD;" width="98.774" height="30.655"/> <rect x="308.6" y="163.453" style="fill:#B8D6FD;" width="105.796" height="30.655"/> </g> <g> <path style="fill:#FFF5CC;" d="M375.217,55.107c4.633,6.732,7.35,14.886,7.35,23.675c0,23.1-18.726,41.824-41.824,41.824 c-4.378,0-8.597-0.675-12.564-1.923c7.541,10.959,20.165,18.149,34.474,18.149c23.098,0,41.824-18.726,41.824-41.824 C404.477,76.287,392.176,60.442,375.217,55.107z"/> <path style="fill:#FFF5CC;" d="M254.036,115.583c-4.328,0-7.837-3.508-7.837-7.837V84.192c0-4.329,3.509-7.837,7.837-7.837 c4.328,0,7.837,3.508,7.837,7.837v23.555C261.872,112.076,258.364,115.583,254.036,115.583z"/> <path style="fill:#FFF5CC;" d="M265.814,103.806H242.26c-4.328,0-7.837-3.508-7.837-7.837s3.509-7.837,7.837-7.837h23.554 c4.328,0,7.837,3.508,7.837,7.837S270.142,103.806,265.814,103.806z"/> <path style="fill:#FFF5CC;" d="M263.378,278.036c-2.005,0-4.011-0.765-5.541-2.295l-16.656-16.656 c-3.061-3.062-3.061-8.023,0-11.083c3.061-3.059,8.023-3.059,11.082,0l16.656,16.656c3.06,3.062,3.06,8.023,0,11.083 C267.389,277.27,265.383,278.036,263.378,278.036z"/> <path style="fill:#FFF5CC;" d="M246.721,278.036c-2.005,0-4.011-0.765-5.541-2.295c-3.061-3.062-3.061-8.023,0-11.083 l16.656-16.656c3.061-3.059,8.023-3.059,11.082,0c3.06,3.062,3.06,8.023,0,11.083l-16.656,16.656 C250.733,277.27,248.727,278.036,246.721,278.036z"/> </g> <rect x="183.651" y="2.912" style="fill:#B8D6FD;" width="258.403" height="30.899"/> <g> <rect x="328.182" y="163.453" style="fill:#315591;" width="20.687" height="30.655"/> <rect x="211.31" y="33.811" style="opacity:0.58;fill:#315591;enable-background:new    ;" width="203.086" height="20.687"/> </g> <rect x="47.72" y="447.916" style="opacity:0.38;fill:#781900;enable-background:new    ;" width="416.559" height="18.507"/> <g> </g> <g> </g> <g> </g> <g> </g> <g> </g> <g> </g> <g> </g> <g> </g> <g> </g> <g> </g> <g> </g> <g> </g> <g> </g> <g> </g> <g> </g> </svg>