<?xml version="1.0" encoding="iso-8859-1"?>
<!-- Generator: Adobe Illustrator 19.0.0, SVG Export Plug-In . SVG Version: 6.00 Build 0)  -->
<svg version="1.1" id="Layer_1" xmlns="http://www.w3.org/2000/svg" xmlns:xlink="http://www.w3.org/1999/xlink" x="0px" y="0px"
	 viewBox="0 0 512 512" style="enable-background:new 0 0 512 512;" xml:space="preserve">
<path style="fill:#A65A3A;" d="M256,0C114.615,0,0,114.616,0,256c0,117.77,79.525,216.966,187.805,246.816l323.802-261.133
	C504.18,106.958,392.58,0,256,0z"/>
<path style="fill:#7A3E25;" d="M178.087,170.773l62.888,62.888L111.304,426.296l76.505,76.505C209.522,508.787,232.385,512,256,512
	c141.384,0,256-114.615,256-256c0-4.807-0.145-9.58-0.406-14.322L309.906,39.991L178.087,170.773z"/>
<polygon style="fill:#F37C4A;" points="378.435,381.774 378.435,426.296 400.696,426.296 400.696,392.904 "/>
<polygon style="fill:#F79E73;" points="111.304,392.904 111.304,426.296 133.565,426.296 133.565,381.774 "/>
<rect x="244.87" y="120.209" style="fill:#FFE2C4;" width="22.261" height="105.739"/>
<polygon style="fill:#EA5A7D;" points="333.913,170.773 256,170.773 239.511,99.26 256,39.991 309.906,39.991 "/>
<polygon style="fill:#F5849F;" points="256,39.991 256,170.773 178.087,170.773 202.094,39.991 "/>
<polygon style="fill:#F37C4A;" points="400.696,214.817 400.696,237.078 233.739,259.339 256,214.817 "/>
<polygon style="fill:#F79E73;" points="256,214.817 256,259.339 111.304,237.078 111.304,214.817 "/>
<polygon style="fill:#FBC09B;" points="256,237.078 211.478,314.991 256,392.904 400.696,392.904 400.696,237.078 "/>
<rect x="111.304" y="237.078" style="fill:#FFE2C4;" width="144.696" height="155.826"/>
<polygon style="fill:#FFF9CF;" points="378.435,259.339 378.435,370.643 256,370.643 222.609,314.991 256,259.339 "/>
<rect x="133.565" y="259.339" style="fill:#FFFFFF;" width="122.435" height="111.304"/>
<polygon style="fill:#F37C4A;" points="256,303.861 244.87,314.991 256,326.122 289.391,326.122 289.391,303.861 "/>
<rect x="222.609" y="303.861" style="fill:#F79E73;" width="33.391" height="22.261"/>
<g>
</g>
<g>
</g>
<g>
</g>
<g>
</g>
<g>
</g>
<g>
</g>
<g>
</g>
<g>
</g>
<g>
</g>
<g>
</g>
<g>
</g>
<g>
</g>
<g>
</g>
<g>
</g>
<g>
</g>
</svg>
