<?xml version="1.0" encoding="iso-8859-1"?>
<!-- Generator: Adobe Illustrator 19.0.0, SVG Export Plug-In . SVG Version: 6.00 Build 0)  -->
<svg version="1.1" id="Layer_1" xmlns="http://www.w3.org/2000/svg" xmlns:xlink="http://www.w3.org/1999/xlink" x="0px" y="0px"
	 viewBox="0 0 512 512" style="enable-background:new 0 0 512 512;" xml:space="preserve">
<circle style="fill:#273B7A;" cx="256" cy="256" r="256"/>
<path style="fill:#121149;" d="M510.054,287.644L383.662,161.252l-14.907,7.978l-55.867-55.865l-32.43,2.753l-23.154-23.154
	l-40.451,12.984l14.352,14.352l-45.023,3.82l156.434,156.434L131.001,409.186l101.752,101.752C240.412,511.628,248.161,512,256,512
	C386.669,512,494.463,414.096,510.054,287.644z"/>
<path style="fill:#E09112;" d="M308.991,119.811h-71.504c-2.153,0-3.898-1.745-3.898-3.898v-2.548c0-2.153,1.745-3.898,3.898-3.898
	h71.504c2.153,0,3.898,1.745,3.898,3.898v2.548C312.889,118.067,311.144,119.811,308.991,119.811z"/>
<path style="fill:#FFC61B;" d="M240.197,156.875H186.47c-8.728,0-15.803-7.075-15.803-15.803V99.987H256v41.086
	C256,149.801,248.925,156.875,240.197,156.875z"/>
<path style="fill:#EAA22F;" d="M214.052,99.987v56.889h26.145c8.728,0,15.803-7.075,15.803-15.803V99.987H214.052z"/>
<path style="fill:#FFFFFF;" d="M142.365,413.737h227.268c9.125,0,16.52-7.397,16.52-16.52V169.95c0-9.125-7.397-16.522-16.52-16.522
	H142.365c-9.123,0-16.52,7.397-16.52,16.522v227.268C125.845,406.34,133.242,413.737,142.365,413.737z"/>
<path style="fill:#D0D1D3;" d="M369.633,153.428H254.562v260.31h115.071c9.125,0,16.52-7.397,16.52-16.52V169.948
	C386.155,160.825,378.758,153.428,369.633,153.428z"/>
<rect x="142.222" y="227.556" style="fill:#71E2EF;" width="227.556" height="142.222"/>
<rect x="254.569" y="227.556" style="fill:#38C6D9;" width="115.214" height="142.222"/>
<g>
	<circle style="fill:#808183;" cx="156.444" cy="184.889" r="14.222"/>
	<circle style="fill:#808183;" cx="222.815" cy="184.889" r="14.222"/>
	<circle style="fill:#808183;" cx="289.185" cy="184.889" r="14.222"/>
	<circle style="fill:#808183;" cx="355.556" cy="184.889" r="14.222"/>
</g>
<path style="fill:#E09112;" d="M253.702,107.313h-80.737c-3.412,0-6.177-2.765-6.177-6.177v-3.162c0-3.412,2.765-6.177,6.177-6.177
	h80.737c3.412,0,6.177,2.765,6.177,6.177v3.162C259.879,104.548,257.114,107.313,253.702,107.313z"/>
<path style="fill:#FF5419;" d="M253.702,91.798h-39.65v15.515h39.65c3.412,0,6.177-2.765,6.177-6.177v-3.162
	C259.879,94.563,257.114,91.798,253.702,91.798z"/>
<g>
</g>
<g>
</g>
<g>
</g>
<g>
</g>
<g>
</g>
<g>
</g>
<g>
</g>
<g>
</g>
<g>
</g>
<g>
</g>
<g>
</g>
<g>
</g>
<g>
</g>
<g>
</g>
<g>
</g>
</svg>
